<svg width="8" height="8" viewBox="0 0 8 8" fill="none" xmlns="http://www.w3.org/2000/svg">
<path d="M0.60437 4.41667H6.18937L3.74937 6.45C3.55437 6.6125 3.55437 6.87917 3.74937 7.04167C3.94437 7.20417 4.25937 7.20417 4.45437 7.04167L7.74937 4.29583C7.94437 4.13333 7.94437 3.87083 7.74937 3.70833L4.45937 0.958333C4.36595 0.880311 4.23913 0.836464 4.10687 0.836464C3.97461 0.836464 3.84779 0.880311 3.75437 0.958333C3.55937 1.12083 3.55937 1.38333 3.75437 1.54583L6.18937 3.58333H0.60437C0.32937 3.58333 0.10437 3.77083 0.10437 4C0.10437 4.22917 0.32937 4.41667 0.60437 4.41667Z" fill="white"/>
</svg>
