<svg width="30" height="30" viewBox="0 0 30 30" fill="none" xmlns="http://www.w3.org/2000/svg">
<path d="M4.125 19.25C5.02125 19.25 5.75 19.9788 5.75 20.875C5.75 21.7713 5.02125 22.5 4.125 22.5C3.22875 22.5 2.5 21.7713 2.5 20.875C2.5 19.9788 3.22875 19.25 4.125 19.25ZM7.5 21.5625C7.5 21.045 7.92 20.625 8.4375 20.625H26.5625C27.08 20.625 27.5 21.045 27.5 21.5625C27.5 22.08 27.08 22.5 26.5625 22.5H8.4375C7.92 22.5 7.5 22.08 7.5 21.5625ZM4.125 13.375C5.02125 13.375 5.75 14.1038 5.75 15C5.75 15.8962 5.02125 16.625 4.125 16.625C3.22875 16.625 2.5 15.8962 2.5 15C2.5 14.1038 3.22875 13.375 4.125 13.375ZM7.5 15C7.5 14.4825 7.92 14.0625 8.4375 14.0625H26.5625C27.08 14.0625 27.5 14.4825 27.5 15C27.5 15.5175 27.08 15.9375 26.5625 15.9375H8.4375C7.92 15.9375 7.5 15.5175 7.5 15ZM4.125 7.5C5.02125 7.5 5.75 8.22875 5.75 9.125C5.75 10.0213 5.02125 10.75 4.125 10.75C3.22875 10.75 2.5 10.0213 2.5 9.125C2.5 8.22875 3.22875 7.5 4.125 7.5ZM7.5 8.4375C7.5 7.92 7.92 7.5 8.4375 7.5H26.5625C27.08 7.5 27.5 7.92 27.5 8.4375C27.5 8.955 27.08 9.375 26.5625 9.375H8.4375C7.92 9.375 7.5 8.955 7.5 8.4375Z" fill="white"/>
</svg>
