<svg width="24" height="18" viewBox="0 0 24 18" fill="none" xmlns="http://www.w3.org/2000/svg">
<path d="M7.47 4L8.034 6H23.161L24 4H7.47ZM21.483 10H9.164L8.6 8H22.322L21.483 10ZM15.5 15C16.328 15 17 15.672 17 16.5C17 17.329 16.328 18 15.5 18C14.672 18 14 17.329 14 16.5C14 15.672 14.672 15 15.5 15ZM4.195 0L7.627 12H20.644L19.805 14H6.146L2.672 2H0.743L0 0H4.195ZM10.5 15C11.328 15 12 15.671 12 16.5C12 17.329 11.328 18 10.5 18C9.672 18 9 17.329 9 16.5C9 15.672 9.672 15 10.5 15Z" fill="white"/>
</svg>
