<svg width="42" height="42" viewBox="0 0 42 42" fill="none" xmlns="http://www.w3.org/2000/svg">
<path fill-rule="evenodd" clip-rule="evenodd" d="M8.75 19.25V21H22.75V8.75H5.25V7C5.25 6.034 6.034 5.25 7 5.25H24.5C25.466 5.25 26.25 6.034 26.25 7V10.5H34.4173C36.372 10.5 37.2173 11.508 37.8053 12.4372C38.8447 14.0822 40.4932 16.6932 41.496 18.3487C41.825 18.8947 42 19.5213 42 20.16V28C42 29.9058 40.6997 31.5 38.5 31.5H36.75C36.75 34.398 34.398 36.75 31.5 36.75C28.602 36.75 26.25 34.398 26.25 31.5H19.25C19.25 34.398 16.898 36.75 14 36.75C11.102 36.75 8.75 34.398 8.75 31.5H7C6.034 31.5 5.25 30.716 5.25 29.75V19.25H1.75V15.75H14V19.25H8.75ZM14 29.4C15.1585 29.4 16.1 30.3415 16.1 31.5C16.1 32.6585 15.1585 33.6 14 33.6C12.8415 33.6 11.9 32.6585 11.9 31.5C11.9 30.3415 12.8415 29.4 14 29.4ZM31.5 29.4C32.6585 29.4 33.6 30.3415 33.6 31.5C33.6 32.6585 32.6585 33.6 31.5 33.6C30.3415 33.6 29.4 32.6585 29.4 31.5C29.4 30.3415 30.3415 29.4 31.5 29.4ZM26.25 24.5H8.75V28H10.0887C11.0495 26.9255 12.446 26.25 14 26.25C15.554 26.25 16.9505 26.9255 17.9112 28H27.5888C28.5495 26.9255 29.946 26.25 31.5 26.25C33.054 26.25 34.4505 26.9255 35.4113 28H38.5V19.9938L35.5057 14.868C35.1925 14.3308 34.6168 14 33.9955 14H26.25V24.5ZM28 15.75V21H36.75L34.2528 16.632C33.9412 16.086 33.362 15.75 32.7337 15.75H28ZM0 10.5H14V14H0V10.5Z" fill="#25313C"/>
</svg>
