<svg width="32" height="32" viewBox="0 0 32 32" fill="none" xmlns="http://www.w3.org/2000/svg">
<g clip-path="url(#clip0_3819_232)">
<path d="M22.304 27.5253L23.9573 29.6427C21.6627 31.128 18.936 32 15.9987 32C10.5627 32 5.83066 29.0333 3.3 24.64L1.04266 25.9493L2.496 20.4827L7.964 21.9347L5.63466 23.2867C7.70533 26.8853 11.5573 29.3333 15.9987 29.3333C18.3133 29.3333 20.4693 28.664 22.304 27.5253ZM4.008 17.4987L3.99866 17.3333C3.99866 11.1667 8.67866 6.08933 14.6693 5.424L14.6667 8L18.672 4.00533L14.68 0L14.6747 2.73333C7.19466 3.404 1.332 9.68 1.332 17.3333L1.36 17.8693L4.008 17.4987ZM28.7773 24.4893C29.972 22.372 30.6653 19.9373 30.6653 17.3333C30.6653 11.2307 26.936 6.00133 21.6347 3.792L20.804 6.344C25.0347 8.20133 27.9987 12.4253 27.9987 17.3333C27.9987 19.4707 27.4107 21.4627 26.4253 23.2027L24.076 21.9173L25.6667 27.3467L31.0947 25.7573L28.7773 24.4893Z" fill="#25313C"/>
</g>
<defs>
<clipPath id="clip0_3819_232">
<rect width="32" height="32" fill="white"/>
</clipPath>
</defs>
</svg>
